<svg width="14" height="15" viewBox="0 0 14 15" fill="none" xmlns="http://www.w3.org/2000/svg">
<path d="M7 0.5C3.13438 0.5 0 3.63438 0 7.5C0 11.3656 3.13438 14.5 7 14.5C10.8656 14.5 14 11.3656 14 7.5C14 3.63438 10.8656 0.5 7 0.5ZM7 13.3125C3.79063 13.3125 1.1875 10.7094 1.1875 7.5C1.1875 4.29063 3.79063 1.6875 7 1.6875C10.2094 1.6875 12.8125 4.29063 12.8125 7.5C12.8125 10.7094 10.2094 13.3125 7 13.3125ZM7.0875 4.98906C7.91562 4.98906 8.47812 5.51719 8.54062 6.29219C8.54531 6.35781 8.6 6.40781 8.66562 6.40781H9.55156C9.59219 6.40781 9.625 6.375 9.625 6.33437C9.625 4.97969 8.55625 4.03125 7.08281 4.03125C5.36562 4.03125 4.375 5.19062 4.375 7.10625V7.92344C4.375 9.825 5.36562 10.9688 7.08281 10.9688C8.55156 10.9688 9.625 10.05 9.625 8.75937C9.625 8.71875 9.59219 8.68594 9.55156 8.68594H8.66406C8.59844 8.68594 8.54531 8.73594 8.53906 8.8C8.47344 9.52031 7.9125 10.0156 7.08594 10.0156C6.06563 10.0156 5.49062 9.26719 5.49062 7.92813V7.10625C5.49219 5.74687 6.06875 4.98906 7.0875 4.98906Z" fill="#9CA3AF"/>
</svg>
