<svg width="24" height="24" viewBox="0 0 24 24" fill="none" xmlns="http://www.w3.org/2000/svg">
<g clip-path="url(#clip0_604_29)">
<path d="M12 0.571289C5.688 0.571289 0.571426 5.68786 0.571426 11.9999C0.571426 18.3119 5.688 23.4284 12 23.4284C18.312 23.4284 23.4286 18.3119 23.4286 11.9999C23.4286 5.68786 18.312 0.571289 12 0.571289ZM12 2.22729C14.4897 2.22729 16.7623 3.15872 18.488 4.69129C17.22 6.36386 15.2937 7.47757 13.3634 8.23129C12.2707 6.2412 11.0461 4.32645 9.69771 2.49986C10.4518 2.31809 11.2249 2.22659 12.0006 2.22729H12ZM7.84228 3.153C9.11657 5.05929 10.3509 6.82672 11.4783 8.82729C8.62685 9.56615 5.40457 10.0096 2.428 10.017C3.05543 6.97243 5.10057 4.44443 7.84228 3.15357V3.153ZM19.572 5.82157C20.9841 7.54726 21.761 9.70548 21.7726 11.9353C19.512 11.4896 17.264 11.373 14.9749 11.6039C14.7177 10.9621 14.4057 10.3524 14.1069 9.69529C16.08 8.89929 18.1897 7.537 19.572 5.821V5.82157ZM12.272 10.3393C12.5166 10.8593 12.8 11.4113 13.0663 11.9753C9.88343 13.3787 6.49771 15.2541 4.74057 18.5421C3.05372 16.6754 2.15474 14.2283 2.232 11.7136C5.64057 11.6976 8.98628 11.2713 12.272 10.3393ZM17.4366 13.0039C18.8587 13.0042 20.275 13.1866 21.6509 13.5467C21.4387 14.8703 20.9565 16.136 20.2343 17.2653C19.512 18.3945 18.5652 19.3631 17.4526 20.1107C16.928 17.725 16.428 15.4421 15.544 13.1404C16.1705 13.0491 16.8028 13.0033 17.436 13.0033L17.4366 13.0039ZM21.7017 13.181C21.6949 13.237 21.6886 13.2919 21.6806 13.3467C21.6886 13.2913 21.6954 13.2364 21.7017 13.181ZM13.736 13.5867C14.6366 15.9141 15.3434 18.4913 15.8177 20.9993C14.6104 21.5116 13.3121 21.7747 12.0006 21.773C9.82791 21.7761 7.71672 21.0519 6.00343 19.7159C7.77314 16.845 10.5143 14.6724 13.7354 13.5873L13.736 13.5867Z" fill="#9CA3AF"/>
</g>
<defs>
<clipPath id="clip0_604_29">
<rect width="24" height="24" fill="white"/>
</clipPath>
</defs>
</svg>
