<svg width="20" height="31" viewBox="0 0 20 31" fill="none" xmlns="http://www.w3.org/2000/svg">
<mask id="mask0_675_1969" style="mask-type:alpha" maskUnits="userSpaceOnUse" x="0" y="6" width="20" height="19">
<path d="M19.2836 12.6969L13.3328 11.8321L10.6726 6.43911C10.6 6.29145 10.4805 6.17192 10.3328 6.09926C9.96248 5.91645 9.51248 6.0688 9.32733 6.43911L6.66717 11.8321L0.716389 12.6969C0.552327 12.7204 0.402327 12.7977 0.287483 12.9149C0.148643 13.0576 0.0721362 13.2496 0.074773 13.4487C0.0774098 13.6477 0.158975 13.8376 0.301545 13.9766L4.60701 18.1743L3.58983 24.1016C3.56597 24.2395 3.58123 24.3813 3.63387 24.511C3.68651 24.6406 3.77442 24.7529 3.88764 24.8351C4.00086 24.9174 4.13486 24.9662 4.27444 24.9762C4.41401 24.9861 4.55358 24.9568 4.67733 24.8915L9.99998 22.093L15.3226 24.8915C15.468 24.9688 15.6367 24.9946 15.7984 24.9665C16.2062 24.8961 16.4805 24.5094 16.4101 24.1016L15.393 18.1743L19.6984 13.9766C19.8156 13.8618 19.893 13.7118 19.9164 13.5477C19.9797 13.1375 19.6937 12.7579 19.2836 12.6969Z" fill="#C4C4C4"/>
</mask>
<g mask="url(#mask0_675_1969)">
<path d="M-2 0H10V31H-2V0Z" fill="#FADB14"/>
<path d="M10 0H22V31H10V0Z" fill="#F0F0F0"/>
</g>
</svg>
