<svg width="18" height="21" viewBox="0 0 18 21" fill="none" xmlns="http://www.w3.org/2000/svg">
<path fill-rule="evenodd" clip-rule="evenodd" d="M3.06 2.86009C4.63539 1.2847 6.77207 0.399658 9 0.399658C11.2279 0.399658 13.3646 1.2847 14.94 2.86009C16.5154 4.43547 17.4004 6.57216 17.4004 8.80009C17.4004 11.028 16.5154 13.1647 14.94 14.7401L9 20.6801L3.06 14.7401C2.2799 13.9601 1.66108 13.034 1.23889 12.0148C0.816696 10.9956 0.599396 9.90326 0.599396 8.80009C0.599396 7.69691 0.816696 6.60454 1.23889 5.58535C1.66108 4.56616 2.2799 3.64011 3.06 2.86009V2.86009ZM9 11.2001C9.63652 11.2001 10.247 10.9472 10.6971 10.4971C11.1471 10.0471 11.4 9.43661 11.4 8.80009C11.4 8.16357 11.1471 7.55312 10.6971 7.10303C10.247 6.65294 9.63652 6.40009 9 6.40009C8.36348 6.40009 7.75303 6.65294 7.30295 7.10303C6.85286 7.55312 6.6 8.16357 6.6 8.80009C6.6 9.43661 6.85286 10.0471 7.30295 10.4971C7.75303 10.9472 8.36348 11.2001 9 11.2001Z" fill="white"/>
</svg>
