<svg width="138" height="38" viewBox="0 0 138 38" fill="none" xmlns="http://www.w3.org/2000/svg">
<rect x="18" y="5" width="28" height="28" rx="14" fill="#FAF8F8"/>
<g clip-path="url(#clip0_508_1316)">
<path d="M41.2361 12.9365L34.3278 25.6468H29.6282L34.293 17.0653C34.9508 15.8549 35.9137 14.8375 37.0861 14.114C38.2585 13.3906 39.5997 12.9862 40.9766 12.9412C41.0623 12.9385 41.1498 12.9365 41.2361 12.9365Z" fill="url(#paint0_linear_508_1316)"/>
<path opacity="0.2" d="M22.1805 12.9365L29.0888 25.6468H33.7884L29.1235 17.0653C28.4657 15.8549 27.5028 14.8374 26.3303 14.114C25.1579 13.3906 23.8167 12.9862 22.4398 12.9412C22.3543 12.9385 22.2668 12.9365 22.1805 12.9365Z" fill="url(#paint1_linear_508_1316)"/>
</g>
<path d="M61.1932 12.18H58.4032L62.4712 25.5H65.6392L69.7252 12.18H67.0252L65.2972 18.66C64.8832 20.172 64.5772 21.45 64.1632 22.962H64.0732C63.6412 21.45 63.3712 20.172 62.9572 18.66L61.1932 12.18ZM73.9221 12.18H71.2581V25.5H73.9221V12.18ZM76.0475 12.18L79.5575 18.624L75.8135 25.5H78.6395L80.0615 22.548C80.4035 21.846 80.6915 21.162 81.0335 20.352H81.1055C81.5195 21.162 81.8075 21.846 82.1495 22.548L83.6435 25.5H86.5955L82.8515 18.75L86.3615 12.18H83.5535L82.2935 14.916C82.0055 15.546 81.7535 16.176 81.4115 17.022H81.3215C80.9075 16.176 80.6375 15.546 80.3315 14.916L78.9995 12.18H76.0475ZM92.8587 12.18H88.4847V25.5H91.1487V20.766H92.9307C95.7927 20.766 98.0787 19.398 98.0787 16.356C98.0787 13.188 95.7927 12.18 92.8587 12.18ZM92.7507 18.66H91.1487V14.286H92.6607C94.5147 14.286 95.4687 14.79 95.4687 16.356C95.4687 17.886 94.5687 18.66 92.7507 18.66ZM101.415 22.08H105.735L106.671 25.5H109.461L105.177 12.18H102.045L97.7786 25.5H100.479L101.415 22.08ZM104.763 18.552L105.159 20.01H101.991L102.387 18.552C102.801 17.166 103.179 15.654 103.521 14.196H103.593C104.007 15.636 104.349 17.166 104.763 18.552ZM108.94 12.18L112.936 20.622V25.5H115.6V20.622L119.614 12.18H116.842L115.51 15.42C115.132 16.428 114.736 17.346 114.322 18.372H114.25C113.836 17.346 113.476 16.428 113.098 15.42L111.766 12.18H108.94Z" fill="#3F3F46"/>
<defs>
<linearGradient id="paint0_linear_508_1316" x1="39.5065" y1="11.6909" x2="30.6076" y2="25.5383" gradientUnits="userSpaceOnUse">
<stop stop-color="#78C8E1"/>
<stop offset="1" stop-color="#19B9EB"/>
</linearGradient>
<linearGradient id="paint1_linear_508_1316" x1="23.9101" y1="11.6909" x2="32.809" y2="25.5383" gradientUnits="userSpaceOnUse">
<stop stop-color="#78C8E1"/>
<stop offset="1" stop-color="#19B9EB"/>
</linearGradient>
<clipPath id="clip0_508_1316">
<rect width="20.4167" height="20.4167" fill="white" transform="translate(21.5 9.08325)"/>
</clipPath>
</defs>
</svg>
