<svg width="24" height="20" viewBox="0 0 24 20" fill="none" xmlns="http://www.w3.org/2000/svg">
<path fill-rule="evenodd" clip-rule="evenodd" d="M0.800049 1.9999C0.800049 1.57556 0.96862 1.16859 1.26868 0.868532C1.56874 0.568474 1.9757 0.399902 2.40005 0.399902H21.6C22.0244 0.399902 22.4314 0.568474 22.7314 0.868532C23.0315 1.16859 23.2001 1.57556 23.2001 1.9999C23.2001 2.42425 23.0315 2.83121 22.7314 3.13127C22.4314 3.43133 22.0244 3.5999 21.6 3.5999H2.40005C1.9757 3.5999 1.56874 3.43133 1.26868 3.13127C0.96862 2.83121 0.800049 2.42425 0.800049 1.9999ZM0.800049 9.9999C0.800049 9.57556 0.96862 9.16859 1.26868 8.86853C1.56874 8.56847 1.9757 8.3999 2.40005 8.3999H21.6C22.0244 8.3999 22.4314 8.56847 22.7314 8.86853C23.0315 9.16859 23.2001 9.57556 23.2001 9.9999C23.2001 10.4242 23.0315 10.8312 22.7314 11.1313C22.4314 11.4313 22.0244 11.5999 21.6 11.5999H2.40005C1.9757 11.5999 1.56874 11.4313 1.26868 11.1313C0.96862 10.8312 0.800049 10.4242 0.800049 9.9999ZM0.800049 17.9999C0.800049 17.5756 0.96862 17.1686 1.26868 16.8685C1.56874 16.5685 1.9757 16.3999 2.40005 16.3999H21.6C22.0244 16.3999 22.4314 16.5685 22.7314 16.8685C23.0315 17.1686 23.2001 17.5756 23.2001 17.9999C23.2001 18.4242 23.0315 18.8312 22.7314 19.1313C22.4314 19.4313 22.0244 19.5999 21.6 19.5999H2.40005C1.9757 19.5999 1.56874 19.4313 1.26868 19.1313C0.96862 18.8312 0.800049 18.4242 0.800049 17.9999Z" fill="#111827"/>
</svg>
