<svg width="20" height="20" viewBox="0 0 20 20" fill="none" xmlns="http://www.w3.org/2000/svg">
<path d="M0.399994 1.5999C0.399994 1.28164 0.526422 0.976418 0.751466 0.751374C0.976509 0.52633 1.28173 0.399902 1.59999 0.399902H4.18359C4.46764 0.400033 4.74243 0.500919 4.95909 0.684614C5.17574 0.868309 5.32021 1.1229 5.36679 1.4031L6.25479 6.7251C6.29722 6.97856 6.25716 7.23895 6.14051 7.46794C6.02386 7.69693 5.83677 7.88241 5.60679 7.9971L3.74919 8.9247C4.41532 10.5755 5.40739 12.075 6.66612 13.3338C7.92485 14.5925 9.42441 15.5846 11.0752 16.2507L12.004 14.3931C12.1186 14.1633 12.3039 13.9764 12.5327 13.8598C12.7614 13.7431 13.0215 13.7029 13.2748 13.7451L18.5968 14.6331C18.877 14.6797 19.1316 14.8242 19.3153 15.0408C19.499 15.2575 19.5999 15.5323 19.6 15.8163V18.3999C19.6 18.7182 19.4736 19.0234 19.2485 19.2484C19.0235 19.4735 18.7183 19.5999 18.4 19.5999H16C7.38399 19.5999 0.399994 12.6159 0.399994 3.9999V1.5999Z" fill="white"/>
</svg>
