<svg width="115" height="29" viewBox="0 0 115 29" fill="none" xmlns="http://www.w3.org/2000/svg">
<rect y="0.5" width="28" height="28" rx="14" fill="#F8F8F8"/>
<g clip-path="url(#clip0_604_31)">
<path d="M23.236 8.43652L16.3278 21.1468H11.6281L16.2929 12.5653C16.9508 11.3549 17.9137 10.3375 19.0861 9.61401C20.2585 8.89057 21.5997 8.48624 22.9766 8.44115C23.0623 8.4385 23.1497 8.43652 23.236 8.43652Z" fill="#A9A9A9"/>
<path opacity="0.2" d="M4.18054 8.43652L11.0888 21.1468H15.7884L11.1235 12.5653C10.4657 11.3549 9.50276 10.3374 8.33033 9.61399C7.1579 8.89055 5.81669 8.48623 4.43976 8.44115C4.35429 8.4385 4.26684 8.43652 4.18054 8.43652Z" fill="#9CA3AF"/>
</g>
<path d="M40.188 22L34.078 3.8H37.978L42.424 17.788L46.844 3.8H50.77L44.634 22H40.188ZM51.734 3.8H55.322V22H51.734V3.8ZM71.759 22H67.677L64.141 16.072L60.605 22H56.549L62.113 12.666L56.835 3.8H60.891L64.141 9.26L67.391 3.8H71.447L66.169 12.64L71.759 22ZM79.7662 3.8C81.5168 3.8 82.9902 4.38933 84.1862 5.568C85.3822 6.74667 85.9802 8.194 85.9802 9.91C85.9802 11.626 85.3822 13.0733 84.1862 14.252C82.9902 15.4307 81.5168 16.02 79.7662 16.02H76.5682V22H72.9802V3.8H79.7662ZM79.7662 12.666C80.5288 12.666 81.1615 12.406 81.6642 11.886C82.1668 11.3487 82.4182 10.69 82.4182 9.91C82.4182 9.11267 82.1668 8.454 81.6642 7.934C81.1615 7.414 80.5288 7.154 79.7662 7.154H76.5682V12.666H79.7662ZM97.3726 22L96.2806 18.724H89.0266L87.9346 22H84.0606L90.4306 3.8H94.8766L101.273 22H97.3726ZM90.1706 15.37H95.1626L92.6666 7.934L90.1706 15.37ZM114.292 3.8L108.052 14.902V22H104.49V14.902L98.2764 3.8H102.332L106.284 11.392L110.236 3.8H114.292Z" fill="#9CA3AF"/>
<defs>
<clipPath id="clip0_604_31">
<rect width="20.4167" height="20.4167" fill="white" transform="translate(3.5 4.5835)"/>
</clipPath>
</defs>
</svg>
